<svg xmlns="http://www.w3.org/2000/svg" xmlns:xlink="http://www.w3.org/1999/xlink" width="447" zoomAndPan="magnify" viewBox="0 0 335.25 122.249994" height="163" preserveAspectRatio="xMidYMid meet" version="1.0"><defs><g/><clipPath id="f0b20b978a"><path d="M 2.902344 0 L 331.632812 0 L 331.632812 111.8125 L 2.902344 111.8125 Z M 2.902344 0 " clip-rule="nonzero"/></clipPath><clipPath id="c192044346"><path d="M 75.453125 103.34375 L 260.929688 103.34375 L 260.929688 120.285156 L 75.453125 120.285156 Z M 75.453125 103.34375 " clip-rule="nonzero"/></clipPath></defs><g clip-path="url(#f0b20b978a)"><path stroke-linecap="butt" transform="matrix(0.745427, 0, 0, 0.745427, 2.900653, 0.0000370575)" fill="none" stroke-linejoin="miter" d="M 0.00226767 -0.0000497131 L 441.061483 -0.0000497131 L 441.061483 149.997918 L 0.00226767 149.997918 Z M 0.00226767 -0.0000497131 " stroke="#ffffff" stroke-width="6" stroke-opacity="1" stroke-miterlimit="4"/></g><g clip-path="url(#c192044346)"><path fill="#000000" d="M 75.453125 103.34375 L 260.949219 103.34375 L 260.949219 120.285156 L 75.453125 120.285156 Z M 75.453125 103.34375 " fill-opacity="1" fill-rule="nonzero"/></g><g fill="#ffffff" fill-opacity="1"><g transform="translate(10.202202, 68.57926)"><g><path d="M 9.8125 -6 C 9.8125 -5.039062 9.863281 -4.257812 9.96875 -3.65625 C 10.070312 -3.050781 10.273438 -2.585938 10.578125 -2.265625 C 10.878906 -1.941406 11.289062 -1.722656 11.8125 -1.609375 C 12.34375 -1.492188 13.050781 -1.4375 13.9375 -1.4375 L 13.9375 0 L 1.703125 0 L 1.703125 -1.4375 C 2.578125 -1.4375 3.285156 -1.492188 3.828125 -1.609375 C 4.367188 -1.722656 4.789062 -1.9375 5.09375 -2.25 C 5.394531 -2.5625 5.597656 -3 5.703125 -3.5625 C 5.804688 -4.132812 5.859375 -4.859375 5.859375 -5.734375 L 5.859375 -23.34375 C 5.859375 -24.300781 5.800781 -25.0625 5.6875 -25.625 C 5.570312 -26.1875 5.367188 -26.617188 5.078125 -26.921875 C 4.785156 -27.222656 4.398438 -27.414062 3.921875 -27.5 C 3.441406 -27.59375 2.828125 -27.640625 2.078125 -27.640625 L 2.078125 -29.078125 L 13.5625 -29.078125 L 13.5625 -27.640625 C 12.800781 -27.640625 12.179688 -27.585938 11.703125 -27.484375 C 11.222656 -27.390625 10.835938 -27.175781 10.546875 -26.84375 C 10.265625 -26.519531 10.070312 -26.0625 9.96875 -25.46875 C 9.863281 -24.875 9.8125 -24.078125 9.8125 -23.078125 L 9.8125 -13.75 L 19.265625 -25.109375 C 19.765625 -25.742188 20.015625 -26.238281 20.015625 -26.59375 C 20.015625 -27.289062 19.296875 -27.640625 17.859375 -27.640625 L 17.859375 -29.078125 L 26.96875 -29.078125 L 26.96875 -27.6875 C 26.457031 -27.6875 26.015625 -27.65625 25.640625 -27.59375 C 25.265625 -27.53125 24.894531 -27.394531 24.53125 -27.1875 C 24.164062 -26.988281 23.78125 -26.695312 23.375 -26.3125 C 22.96875 -25.9375 22.503906 -25.445312 21.984375 -24.84375 L 14.875 -16.65625 L 25.90625 -3.40625 C 26.53125 -2.664062 27.117188 -2.148438 27.671875 -1.859375 C 28.234375 -1.578125 28.976562 -1.4375 29.90625 -1.4375 L 29.90625 0 L 18.3125 0 L 18.3125 -1.4375 C 19.300781 -1.4375 20.007812 -1.515625 20.4375 -1.671875 C 20.863281 -1.835938 21.078125 -2.097656 21.078125 -2.453125 C 21.078125 -2.648438 20.972656 -2.9375 20.765625 -3.3125 C 20.566406 -3.695312 20.242188 -4.164062 19.796875 -4.71875 L 12.421875 -13.78125 L 9.8125 -10.765625 Z M 9.8125 -6 "/></g></g></g><g fill="#ffffff" fill-opacity="1"><g transform="translate(39.617691, 68.57926)"><g><path d="M 19.71875 -3.515625 C 17.570312 -0.921875 14.914062 0.375 11.75 0.375 C 10.257812 0.375 8.910156 0.128906 7.703125 -0.359375 C 6.492188 -0.847656 5.453125 -1.539062 4.578125 -2.4375 C 3.710938 -3.332031 3.039062 -4.398438 2.5625 -5.640625 C 2.082031 -6.890625 1.84375 -8.269531 1.84375 -9.78125 C 1.84375 -11.3125 2.09375 -12.734375 2.59375 -14.046875 C 3.101562 -15.359375 3.816406 -16.476562 4.734375 -17.40625 C 5.660156 -18.34375 6.757812 -19.070312 8.03125 -19.59375 C 9.300781 -20.125 10.691406 -20.390625 12.203125 -20.390625 C 14.640625 -20.390625 16.523438 -19.726562 17.859375 -18.40625 C 19.191406 -17.082031 19.859375 -15.191406 19.859375 -12.734375 C 19.859375 -12.378906 19.789062 -12.160156 19.65625 -12.078125 C 19.519531 -12.003906 19.195312 -11.96875 18.6875 -11.96875 L 6.265625 -11.96875 C 6.210938 -11.769531 6.175781 -11.523438 6.15625 -11.234375 C 6.132812 -10.941406 6.125 -10.617188 6.125 -10.265625 C 6.125 -8.960938 6.28125 -7.773438 6.59375 -6.703125 C 6.90625 -5.628906 7.359375 -4.710938 7.953125 -3.953125 C 8.546875 -3.203125 9.25 -2.617188 10.0625 -2.203125 C 10.882812 -1.796875 11.796875 -1.59375 12.796875 -1.59375 C 13.859375 -1.59375 14.84375 -1.820312 15.75 -2.28125 C 16.65625 -2.75 17.585938 -3.507812 18.546875 -4.5625 Z M 13.484375 -13.703125 C 13.984375 -13.703125 14.382812 -13.710938 14.6875 -13.734375 C 14.988281 -13.765625 15.210938 -13.816406 15.359375 -13.890625 C 15.515625 -13.972656 15.617188 -14.082031 15.671875 -14.21875 C 15.722656 -14.351562 15.75 -14.535156 15.75 -14.765625 C 15.75 -15.921875 15.375 -16.84375 14.625 -17.53125 C 13.882812 -18.226562 12.875 -18.578125 11.59375 -18.578125 C 8.875 -18.578125 7.1875 -16.953125 6.53125 -13.703125 Z M 13.484375 -13.703125 "/></g></g></g><g fill="#ffffff" fill-opacity="1"><g transform="translate(61.254506, 68.57926)"><g><path d="M 3.921875 -15.328125 C 3.617188 -16.085938 3.347656 -16.6875 3.109375 -17.125 C 2.867188 -17.5625 2.609375 -17.894531 2.328125 -18.125 C 2.054688 -18.351562 1.75 -18.5 1.40625 -18.5625 C 1.070312 -18.625 0.664062 -18.664062 0.1875 -18.6875 L 0.1875 -20.015625 L 10.203125 -20.015625 L 10.203125 -18.6875 C 9.691406 -18.664062 9.269531 -18.640625 8.9375 -18.609375 C 8.613281 -18.585938 8.359375 -18.53125 8.171875 -18.4375 C 7.984375 -18.351562 7.851562 -18.226562 7.78125 -18.0625 C 7.707031 -17.90625 7.671875 -17.675781 7.671875 -17.375 C 7.671875 -16.945312 7.722656 -16.539062 7.828125 -16.15625 C 7.941406 -15.78125 8.0625 -15.40625 8.1875 -15.03125 L 12.203125 -4.078125 L 12.34375 -4.078125 L 15.78125 -12.203125 C 16.3125 -13.460938 16.691406 -14.46875 16.921875 -15.21875 C 17.148438 -15.976562 17.265625 -16.644531 17.265625 -17.21875 C 17.265625 -17.800781 17.113281 -18.191406 16.8125 -18.390625 C 16.507812 -18.585938 15.851562 -18.6875 14.84375 -18.6875 L 14.84375 -20.015625 L 22.359375 -20.015625 L 22.359375 -18.6875 C 21.953125 -18.6875 21.582031 -18.585938 21.25 -18.390625 C 20.925781 -18.191406 20.640625 -17.941406 20.390625 -17.640625 C 20.191406 -17.359375 19.984375 -16.984375 19.765625 -16.515625 C 19.554688 -16.054688 19.34375 -15.570312 19.125 -15.0625 C 18.914062 -14.5625 18.722656 -14.066406 18.546875 -13.578125 C 18.367188 -13.085938 18.203125 -12.691406 18.046875 -12.390625 L 12.5 0.421875 L 10.3125 0.421875 Z M 3.921875 -15.328125 "/></g></g></g><g fill="#ffffff" fill-opacity="1"><g transform="translate(84.288461, 68.57926)"><g><path d="M 8.609375 -6 C 8.609375 -5.019531 8.648438 -4.234375 8.734375 -3.640625 C 8.828125 -3.046875 9 -2.578125 9.25 -2.234375 C 9.5 -1.898438 9.847656 -1.671875 10.296875 -1.546875 C 10.753906 -1.421875 11.363281 -1.347656 12.125 -1.328125 L 12.125 0 L 1.28125 0 L 1.28125 -1.328125 C 2.039062 -1.347656 2.660156 -1.425781 3.140625 -1.5625 C 3.617188 -1.707031 3.988281 -1.9375 4.25 -2.25 C 4.507812 -2.5625 4.679688 -3 4.765625 -3.5625 C 4.859375 -4.132812 4.90625 -4.859375 4.90625 -5.734375 L 4.90625 -10.578125 C 4.90625 -12.035156 4.882812 -13.234375 4.84375 -14.171875 C 4.8125 -15.117188 4.742188 -15.769531 4.640625 -16.125 C 4.515625 -16.707031 4.222656 -17.101562 3.765625 -17.3125 C 3.316406 -17.53125 2.460938 -17.640625 1.203125 -17.640625 L 1.203125 -18.953125 L 8.609375 -20.390625 Z M 4.265625 -28.0625 C 4.265625 -28.71875 4.488281 -29.269531 4.9375 -29.71875 C 5.394531 -30.175781 5.953125 -30.40625 6.609375 -30.40625 C 7.265625 -30.40625 7.816406 -30.175781 8.265625 -29.71875 C 8.722656 -29.269531 8.953125 -28.71875 8.953125 -28.0625 C 8.953125 -27.40625 8.722656 -26.847656 8.265625 -26.390625 C 7.816406 -25.941406 7.265625 -25.71875 6.609375 -25.71875 C 5.953125 -25.71875 5.394531 -25.941406 4.9375 -26.390625 C 4.488281 -26.847656 4.265625 -27.40625 4.265625 -28.0625 Z M 4.265625 -28.0625 "/></g></g></g><g fill="#ffffff" fill-opacity="1"><g transform="translate(97.164817, 68.57926)"><g><path d="M 8.15625 -5.921875 C 8.15625 -4.890625 8.179688 -4.078125 8.234375 -3.484375 C 8.285156 -2.898438 8.414062 -2.445312 8.625 -2.125 C 8.84375 -1.8125 9.160156 -1.601562 9.578125 -1.5 C 9.992188 -1.40625 10.566406 -1.332031 11.296875 -1.28125 L 11.296875 0 L 1.390625 0 L 1.390625 -1.28125 C 2.097656 -1.332031 2.660156 -1.40625 3.078125 -1.5 C 3.492188 -1.601562 3.8125 -1.804688 4.03125 -2.109375 C 4.257812 -2.410156 4.40625 -2.835938 4.46875 -3.390625 C 4.53125 -3.953125 4.5625 -4.710938 4.5625 -5.671875 L 4.5625 -10.6875 C 4.5625 -13.6875 4.488281 -15.507812 4.34375 -16.15625 C 4.269531 -16.488281 4.175781 -16.757812 4.0625 -16.96875 C 3.945312 -17.1875 3.773438 -17.351562 3.546875 -17.46875 C 3.316406 -17.582031 3.023438 -17.65625 2.671875 -17.6875 C 2.328125 -17.726562 1.878906 -17.75 1.328125 -17.75 L 1.328125 -18.953125 L 7.359375 -20.390625 L 7.8125 -16.65625 L 7.96875 -16.65625 C 8.925781 -17.832031 10.046875 -18.75 11.328125 -19.40625 C 12.609375 -20.0625 14.003906 -20.390625 15.515625 -20.390625 C 16.679688 -20.390625 17.738281 -20.203125 18.6875 -19.828125 C 19.644531 -19.453125 20.378906 -18.9375 20.890625 -18.28125 C 21.316406 -17.695312 21.617188 -16.945312 21.796875 -16.03125 C 21.972656 -15.113281 22.0625 -13.847656 22.0625 -12.234375 L 22.0625 -5.921875 C 22.0625 -4.890625 22.09375 -4.078125 22.15625 -3.484375 C 22.21875 -2.898438 22.347656 -2.445312 22.546875 -2.125 C 22.742188 -1.8125 23.050781 -1.601562 23.46875 -1.5 C 23.882812 -1.40625 24.429688 -1.332031 25.109375 -1.28125 L 25.109375 0 L 15.328125 0 L 15.328125 -1.28125 C 16.035156 -1.3125 16.597656 -1.378906 17.015625 -1.484375 C 17.429688 -1.597656 17.742188 -1.804688 17.953125 -2.109375 C 18.171875 -2.410156 18.3125 -2.84375 18.375 -3.40625 C 18.4375 -3.976562 18.46875 -4.734375 18.46875 -5.671875 L 18.46875 -10.65625 C 18.46875 -12.082031 18.390625 -13.285156 18.234375 -14.265625 C 18.085938 -15.253906 17.84375 -16.050781 17.5 -16.65625 C 17.164062 -17.257812 16.71875 -17.691406 16.15625 -17.953125 C 15.601562 -18.222656 14.9375 -18.359375 14.15625 -18.359375 C 13.03125 -18.359375 11.992188 -18.0625 11.046875 -17.46875 C 10.097656 -16.875 9.363281 -16.0625 8.84375 -15.03125 C 8.707031 -14.78125 8.597656 -14.539062 8.515625 -14.3125 C 8.429688 -14.082031 8.363281 -13.816406 8.3125 -13.515625 C 8.257812 -13.210938 8.21875 -12.863281 8.1875 -12.46875 C 8.164062 -12.082031 8.15625 -11.585938 8.15625 -10.984375 Z M 8.15625 -5.921875 "/></g></g></g><g fill="#ffffff" fill-opacity="1"><g transform="translate(123.181855, 68.57926)"><g/></g></g><g fill="#ffffff" fill-opacity="1"><g transform="translate(134.019138, 68.57926)"><g><path d="M 26.015625 -29.078125 L 27.078125 -29.078125 L 27.421875 -20.390625 L 26.015625 -20.390625 C 25.460938 -22.609375 24.394531 -24.347656 22.8125 -25.609375 C 21.226562 -26.867188 19.3125 -27.5 17.0625 -27.5 C 15.53125 -27.5 14.160156 -27.195312 12.953125 -26.59375 C 11.742188 -25.988281 10.722656 -25.117188 9.890625 -23.984375 C 9.054688 -22.847656 8.421875 -21.460938 7.984375 -19.828125 C 7.546875 -18.191406 7.328125 -16.34375 7.328125 -14.28125 C 7.328125 -10.21875 8.171875 -7.097656 9.859375 -4.921875 C 11.546875 -2.742188 13.988281 -1.65625 17.1875 -1.65625 C 22.039062 -1.65625 25.160156 -4.238281 26.546875 -9.40625 L 28.09375 -9.40625 L 28.09375 0 L 26.78125 0 L 25.90625 -2.984375 C 23.257812 -0.742188 20.0625 0.375 16.3125 0.375 C 14.175781 0.375 12.242188 0.0351562 10.515625 -0.640625 C 8.796875 -1.316406 7.320312 -2.28125 6.09375 -3.53125 C 4.875 -4.78125 3.929688 -6.296875 3.265625 -8.078125 C 2.597656 -9.867188 2.265625 -11.859375 2.265625 -14.046875 C 2.265625 -16.335938 2.613281 -18.425781 3.3125 -20.3125 C 4.019531 -22.207031 5.007812 -23.832031 6.28125 -25.1875 C 7.550781 -26.550781 9.070312 -27.601562 10.84375 -28.34375 C 12.625 -29.082031 14.585938 -29.453125 16.734375 -29.453125 C 18.242188 -29.453125 19.664062 -29.238281 21 -28.8125 C 22.332031 -28.382812 23.78125 -27.691406 25.34375 -26.734375 Z M 26.015625 -29.078125 "/></g></g></g><g fill="#ffffff" fill-opacity="1"><g transform="translate(164.303124, 68.57926)"><g><path d="M 7.859375 -6 C 7.859375 -4.96875 7.878906 -4.148438 7.921875 -3.546875 C 7.972656 -2.941406 8.101562 -2.484375 8.3125 -2.171875 C 8.53125 -1.859375 8.84375 -1.648438 9.25 -1.546875 C 9.65625 -1.441406 10.222656 -1.367188 10.953125 -1.328125 L 10.953125 0 L 0.90625 0 L 0.90625 -1.328125 C 1.632812 -1.367188 2.210938 -1.441406 2.640625 -1.546875 C 3.066406 -1.648438 3.394531 -1.851562 3.625 -2.15625 C 3.851562 -2.457031 4 -2.890625 4.0625 -3.453125 C 4.125 -4.023438 4.15625 -4.785156 4.15625 -5.734375 L 4.15625 -21.5625 C 4.15625 -23.050781 4.132812 -24.234375 4.09375 -25.109375 C 4.0625 -25.992188 3.992188 -26.660156 3.890625 -27.109375 C 3.835938 -27.410156 3.753906 -27.65625 3.640625 -27.84375 C 3.523438 -28.039062 3.351562 -28.191406 3.125 -28.296875 C 2.90625 -28.410156 2.601562 -28.492188 2.21875 -28.546875 C 1.84375 -28.597656 1.378906 -28.625 0.828125 -28.625 L 0.828125 -29.90625 L 7.78125 -31.34375 L 7.78125 -16.953125 L 7.9375 -16.953125 C 8.3125 -17.460938 8.78125 -17.921875 9.34375 -18.328125 C 9.914062 -18.742188 10.523438 -19.101562 11.171875 -19.40625 C 11.828125 -19.707031 12.515625 -19.945312 13.234375 -20.125 C 13.953125 -20.300781 14.648438 -20.390625 15.328125 -20.390625 C 16.484375 -20.390625 17.546875 -20.1875 18.515625 -19.78125 C 19.492188 -19.382812 20.242188 -18.847656 20.765625 -18.171875 C 21.191406 -17.585938 21.503906 -16.820312 21.703125 -15.875 C 21.910156 -14.9375 22.015625 -13.660156 22.015625 -12.046875 L 22.015625 -6 C 22.015625 -4.96875 22.039062 -4.15625 22.09375 -3.5625 C 22.144531 -2.976562 22.273438 -2.519531 22.484375 -2.1875 C 22.703125 -1.863281 23.007812 -1.648438 23.40625 -1.546875 C 23.8125 -1.441406 24.378906 -1.367188 25.109375 -1.328125 L 25.109375 0 L 15.109375 0 L 15.109375 -1.328125 C 15.804688 -1.347656 16.367188 -1.414062 16.796875 -1.53125 C 17.234375 -1.644531 17.554688 -1.851562 17.765625 -2.15625 C 17.984375 -2.457031 18.125 -2.890625 18.1875 -3.453125 C 18.25 -4.023438 18.28125 -4.785156 18.28125 -5.734375 L 18.28125 -10.5 C 18.28125 -13.320312 17.953125 -15.328125 17.296875 -16.515625 C 16.640625 -17.710938 15.546875 -18.3125 14.015625 -18.3125 C 12.828125 -18.3125 11.75 -18.007812 10.78125 -17.40625 C 9.8125 -16.800781 9.050781 -15.972656 8.5 -14.921875 C 8.375 -14.640625 8.265625 -14.378906 8.171875 -14.140625 C 8.085938 -13.898438 8.019531 -13.628906 7.96875 -13.328125 C 7.914062 -13.023438 7.882812 -12.675781 7.875 -12.28125 C 7.863281 -11.894531 7.859375 -11.414062 7.859375 -10.84375 Z M 7.859375 -6 "/></g></g></g><g fill="#ffffff" fill-opacity="1"><g transform="translate(190.2824, 68.57926)"><g><path d="M 8.609375 -6 C 8.609375 -5.019531 8.648438 -4.234375 8.734375 -3.640625 C 8.828125 -3.046875 9 -2.578125 9.25 -2.234375 C 9.5 -1.898438 9.847656 -1.671875 10.296875 -1.546875 C 10.753906 -1.421875 11.363281 -1.347656 12.125 -1.328125 L 12.125 0 L 1.28125 0 L 1.28125 -1.328125 C 2.039062 -1.347656 2.660156 -1.425781 3.140625 -1.5625 C 3.617188 -1.707031 3.988281 -1.9375 4.25 -2.25 C 4.507812 -2.5625 4.679688 -3 4.765625 -3.5625 C 4.859375 -4.132812 4.90625 -4.859375 4.90625 -5.734375 L 4.90625 -10.578125 C 4.90625 -12.035156 4.882812 -13.234375 4.84375 -14.171875 C 4.8125 -15.117188 4.742188 -15.769531 4.640625 -16.125 C 4.515625 -16.707031 4.222656 -17.101562 3.765625 -17.3125 C 3.316406 -17.53125 2.460938 -17.640625 1.203125 -17.640625 L 1.203125 -18.953125 L 8.609375 -20.390625 Z M 4.265625 -28.0625 C 4.265625 -28.71875 4.488281 -29.269531 4.9375 -29.71875 C 5.394531 -30.175781 5.953125 -30.40625 6.609375 -30.40625 C 7.265625 -30.40625 7.816406 -30.175781 8.265625 -29.71875 C 8.722656 -29.269531 8.953125 -28.71875 8.953125 -28.0625 C 8.953125 -27.40625 8.722656 -26.847656 8.265625 -26.390625 C 7.816406 -25.941406 7.265625 -25.71875 6.609375 -25.71875 C 5.953125 -25.71875 5.394531 -25.941406 4.9375 -26.390625 C 4.488281 -26.847656 4.265625 -27.40625 4.265625 -28.0625 Z M 4.265625 -28.0625 "/></g></g></g><g fill="#ffffff" fill-opacity="1"><g transform="translate(203.158767, 68.57926)"><g><path d="M 3.25 0 L 2.421875 0 L 2.421875 -6.5 L 3.359375 -6.5 C 4.335938 -2.945312 6.125 -1.171875 8.71875 -1.171875 C 9.726562 -1.171875 10.53125 -1.414062 11.125 -1.90625 C 11.71875 -2.394531 12.015625 -3.144531 12.015625 -4.15625 C 12.015625 -4.53125 11.957031 -4.847656 11.84375 -5.109375 C 11.726562 -5.378906 11.507812 -5.65625 11.1875 -5.9375 C 10.875 -6.226562 10.4375 -6.5625 9.875 -6.9375 C 9.3125 -7.320312 8.5625 -7.804688 7.625 -8.390625 C 6.769531 -8.910156 6.023438 -9.394531 5.390625 -9.84375 C 4.765625 -10.300781 4.238281 -10.765625 3.8125 -11.234375 C 3.382812 -11.703125 3.0625 -12.195312 2.84375 -12.71875 C 2.632812 -13.25 2.53125 -13.867188 2.53125 -14.578125 C 2.53125 -15.429688 2.675781 -16.21875 2.96875 -16.9375 C 3.257812 -17.65625 3.65625 -18.265625 4.15625 -18.765625 C 4.65625 -19.273438 5.242188 -19.671875 5.921875 -19.953125 C 6.609375 -20.242188 7.351562 -20.390625 8.15625 -20.390625 C 8.832031 -20.390625 9.535156 -20.28125 10.265625 -20.0625 C 11.003906 -19.851562 11.648438 -19.570312 12.203125 -19.21875 L 12.953125 -20.015625 L 13.671875 -20.015625 L 13.671875 -14.578125 L 12.6875 -14.578125 C 12.132812 -16.109375 11.53125 -17.203125 10.875 -17.859375 C 10.21875 -18.515625 9.410156 -18.84375 8.453125 -18.84375 C 7.597656 -18.84375 6.910156 -18.613281 6.390625 -18.15625 C 5.878906 -17.707031 5.625 -17.082031 5.625 -16.28125 C 5.625 -15.851562 5.691406 -15.476562 5.828125 -15.15625 C 5.972656 -14.84375 6.195312 -14.535156 6.5 -14.234375 C 6.800781 -13.929688 7.179688 -13.625 7.640625 -13.3125 C 8.109375 -13 8.671875 -12.640625 9.328125 -12.234375 C 10.410156 -11.554688 11.332031 -10.953125 12.09375 -10.421875 C 12.863281 -9.890625 13.488281 -9.363281 13.96875 -8.84375 C 14.445312 -8.332031 14.800781 -7.800781 15.03125 -7.25 C 15.257812 -6.695312 15.375 -6.066406 15.375 -5.359375 C 15.375 -3.578125 14.789062 -2.175781 13.625 -1.15625 C 12.46875 -0.132812 10.945312 0.375 9.0625 0.375 C 7.101562 0.375 5.414062 -0.191406 4 -1.328125 Z M 3.25 0 "/></g></g></g><g fill="#ffffff" fill-opacity="1"><g transform="translate(220.302081, 68.57926)"><g><path d="M 7.859375 -6 C 7.859375 -4.96875 7.878906 -4.148438 7.921875 -3.546875 C 7.972656 -2.941406 8.101562 -2.484375 8.3125 -2.171875 C 8.53125 -1.859375 8.84375 -1.648438 9.25 -1.546875 C 9.65625 -1.441406 10.222656 -1.367188 10.953125 -1.328125 L 10.953125 0 L 0.90625 0 L 0.90625 -1.328125 C 1.632812 -1.367188 2.210938 -1.441406 2.640625 -1.546875 C 3.066406 -1.648438 3.394531 -1.851562 3.625 -2.15625 C 3.851562 -2.457031 4 -2.890625 4.0625 -3.453125 C 4.125 -4.023438 4.15625 -4.785156 4.15625 -5.734375 L 4.15625 -21.5625 C 4.15625 -23.050781 4.132812 -24.234375 4.09375 -25.109375 C 4.0625 -25.992188 3.992188 -26.660156 3.890625 -27.109375 C 3.835938 -27.410156 3.753906 -27.65625 3.640625 -27.84375 C 3.523438 -28.039062 3.351562 -28.191406 3.125 -28.296875 C 2.90625 -28.410156 2.601562 -28.492188 2.21875 -28.546875 C 1.84375 -28.597656 1.378906 -28.625 0.828125 -28.625 L 0.828125 -29.90625 L 7.78125 -31.34375 L 7.78125 -16.953125 L 7.9375 -16.953125 C 8.3125 -17.460938 8.78125 -17.921875 9.34375 -18.328125 C 9.914062 -18.742188 10.523438 -19.101562 11.171875 -19.40625 C 11.828125 -19.707031 12.515625 -19.945312 13.234375 -20.125 C 13.953125 -20.300781 14.648438 -20.390625 15.328125 -20.390625 C 16.484375 -20.390625 17.546875 -20.1875 18.515625 -19.78125 C 19.492188 -19.382812 20.242188 -18.847656 20.765625 -18.171875 C 21.191406 -17.585938 21.503906 -16.820312 21.703125 -15.875 C 21.910156 -14.9375 22.015625 -13.660156 22.015625 -12.046875 L 22.015625 -6 C 22.015625 -4.96875 22.039062 -4.15625 22.09375 -3.5625 C 22.144531 -2.976562 22.273438 -2.519531 22.484375 -2.1875 C 22.703125 -1.863281 23.007812 -1.648438 23.40625 -1.546875 C 23.8125 -1.441406 24.378906 -1.367188 25.109375 -1.328125 L 25.109375 0 L 15.109375 0 L 15.109375 -1.328125 C 15.804688 -1.347656 16.367188 -1.414062 16.796875 -1.53125 C 17.234375 -1.644531 17.554688 -1.851562 17.765625 -2.15625 C 17.984375 -2.457031 18.125 -2.890625 18.1875 -3.453125 C 18.25 -4.023438 18.28125 -4.785156 18.28125 -5.734375 L 18.28125 -10.5 C 18.28125 -13.320312 17.953125 -15.328125 17.296875 -16.515625 C 16.640625 -17.710938 15.546875 -18.3125 14.015625 -18.3125 C 12.828125 -18.3125 11.75 -18.007812 10.78125 -17.40625 C 9.8125 -16.800781 9.050781 -15.972656 8.5 -14.921875 C 8.375 -14.640625 8.265625 -14.378906 8.171875 -14.140625 C 8.085938 -13.898438 8.019531 -13.628906 7.96875 -13.328125 C 7.914062 -13.023438 7.882812 -12.675781 7.875 -12.28125 C 7.863281 -11.894531 7.859375 -11.414062 7.859375 -10.84375 Z M 7.859375 -6 "/></g></g></g><g fill="#ffffff" fill-opacity="1"><g transform="translate(246.281369, 68.57926)"><g><path d="M 12.28125 -20.390625 C 13.707031 -20.390625 15.0625 -20.128906 16.34375 -19.609375 C 17.632812 -19.097656 18.765625 -18.390625 19.734375 -17.484375 C 20.703125 -16.578125 21.46875 -15.5 22.03125 -14.25 C 22.601562 -13.007812 22.890625 -11.644531 22.890625 -10.15625 C 22.890625 -8.625 22.601562 -7.210938 22.03125 -5.921875 C 21.46875 -4.640625 20.703125 -3.53125 19.734375 -2.59375 C 18.765625 -1.664062 17.632812 -0.9375 16.34375 -0.40625 C 15.0625 0.113281 13.707031 0.375 12.28125 0.375 C 10.863281 0.375 9.519531 0.117188 8.25 -0.390625 C 6.976562 -0.910156 5.863281 -1.632812 4.90625 -2.5625 C 3.945312 -3.5 3.191406 -4.613281 2.640625 -5.90625 C 2.085938 -7.207031 1.8125 -8.625 1.8125 -10.15625 C 1.8125 -11.644531 2.085938 -13.015625 2.640625 -14.265625 C 3.191406 -15.523438 3.945312 -16.609375 4.90625 -17.515625 C 5.863281 -18.429688 6.976562 -19.140625 8.25 -19.640625 C 9.519531 -20.140625 10.863281 -20.390625 12.28125 -20.390625 Z M 12.28125 -18.578125 C 11.34375 -18.578125 10.488281 -18.375 9.71875 -17.96875 C 8.957031 -17.570312 8.304688 -17 7.765625 -16.25 C 7.222656 -15.507812 6.804688 -14.617188 6.515625 -13.578125 C 6.222656 -12.535156 6.078125 -11.382812 6.078125 -10.125 C 6.078125 -8.8125 6.222656 -7.625 6.515625 -6.5625 C 6.804688 -5.507812 7.222656 -4.609375 7.765625 -3.859375 C 8.304688 -3.117188 8.953125 -2.546875 9.703125 -2.140625 C 10.460938 -1.742188 11.320312 -1.546875 12.28125 -1.546875 C 13.226562 -1.546875 14.09375 -1.742188 14.875 -2.140625 C 15.65625 -2.546875 16.320312 -3.125 16.875 -3.875 C 17.4375 -4.632812 17.867188 -5.539062 18.171875 -6.59375 C 18.472656 -7.65625 18.625 -8.832031 18.625 -10.125 C 18.625 -11.382812 18.472656 -12.53125 18.171875 -13.5625 C 17.867188 -14.59375 17.4375 -15.476562 16.875 -16.21875 C 16.320312 -16.957031 15.65625 -17.535156 14.875 -17.953125 C 14.09375 -18.367188 13.226562 -18.578125 12.28125 -18.578125 Z M 12.28125 -18.578125 "/></g></g></g><g fill="#ffffff" fill-opacity="1"><g transform="translate(270.97677, 68.57926)"><g><path d="M 7.890625 -5.890625 C 7.890625 -4.929688 7.925781 -4.160156 8 -3.578125 C 8.082031 -3.003906 8.242188 -2.550781 8.484375 -2.21875 C 8.722656 -1.894531 9.0625 -1.671875 9.5 -1.546875 C 9.9375 -1.421875 10.519531 -1.347656 11.25 -1.328125 L 11.25 0 L 0.828125 0 L 0.828125 -1.328125 C 1.585938 -1.347656 2.191406 -1.425781 2.640625 -1.5625 C 3.097656 -1.707031 3.457031 -1.929688 3.71875 -2.234375 C 3.976562 -2.535156 4.148438 -2.957031 4.234375 -3.5 C 4.328125 -4.039062 4.375 -4.75 4.375 -5.625 L 4.375 -21.90625 C 4.375 -23.257812 4.351562 -24.394531 4.3125 -25.3125 C 4.28125 -26.238281 4.226562 -26.863281 4.15625 -27.1875 C 4.03125 -27.769531 3.734375 -28.160156 3.265625 -28.359375 C 2.796875 -28.566406 1.957031 -28.671875 0.75 -28.671875 L 0.75 -29.953125 L 7.890625 -31.34375 Z M 7.890625 -5.890625 "/></g></g></g><g fill="#ffffff" fill-opacity="1"><g transform="translate(283.248968, 68.57926)"><g><path d="M 8.34375 -6.046875 C 8.34375 -4.984375 8.367188 -4.148438 8.421875 -3.546875 C 8.472656 -2.941406 8.601562 -2.484375 8.8125 -2.171875 C 9.03125 -1.859375 9.335938 -1.648438 9.734375 -1.546875 C 10.140625 -1.441406 10.707031 -1.367188 11.4375 -1.328125 L 11.4375 0 L 1.390625 0 L 1.390625 -1.328125 C 2.128906 -1.367188 2.710938 -1.441406 3.140625 -1.546875 C 3.566406 -1.648438 3.890625 -1.851562 4.109375 -2.15625 C 4.335938 -2.457031 4.484375 -2.890625 4.546875 -3.453125 C 4.609375 -4.023438 4.640625 -4.785156 4.640625 -5.734375 L 4.640625 -10.578125 C 4.640625 -12.015625 4.617188 -13.207031 4.578125 -14.15625 C 4.546875 -15.113281 4.476562 -15.769531 4.375 -16.125 C 4.300781 -16.445312 4.210938 -16.703125 4.109375 -16.890625 C 4.015625 -17.085938 3.851562 -17.238281 3.625 -17.34375 C 3.394531 -17.457031 3.097656 -17.535156 2.734375 -17.578125 C 2.367188 -17.617188 1.898438 -17.640625 1.328125 -17.640625 L 1.328125 -18.953125 L 7.484375 -20.390625 L 7.96875 -16.609375 L 8.15625 -16.609375 C 9.289062 -17.898438 10.476562 -18.851562 11.71875 -19.46875 C 12.96875 -20.082031 14.347656 -20.390625 15.859375 -20.390625 C 17.441406 -20.390625 18.773438 -20.066406 19.859375 -19.421875 C 20.941406 -18.785156 21.695312 -17.863281 22.125 -16.65625 L 22.28125 -16.65625 C 23.207031 -17.832031 24.335938 -18.75 25.671875 -19.40625 C 27.015625 -20.0625 28.441406 -20.390625 29.953125 -20.390625 C 31.128906 -20.390625 32.203125 -20.191406 33.171875 -19.796875 C 34.140625 -19.410156 34.878906 -18.878906 35.390625 -18.203125 C 35.835938 -17.617188 36.15625 -16.851562 36.34375 -15.90625 C 36.53125 -14.96875 36.625 -13.679688 36.625 -12.046875 L 36.625 -6.046875 C 36.625 -5.015625 36.65625 -4.195312 36.71875 -3.59375 C 36.789062 -2.988281 36.925781 -2.519531 37.125 -2.1875 C 37.320312 -1.863281 37.628906 -1.648438 38.046875 -1.546875 C 38.460938 -1.441406 39.035156 -1.367188 39.765625 -1.328125 L 39.765625 0 L 29.71875 0 L 29.71875 -1.328125 C 30.425781 -1.347656 30.992188 -1.414062 31.421875 -1.53125 C 31.847656 -1.644531 32.175781 -1.859375 32.40625 -2.171875 C 32.632812 -2.484375 32.78125 -2.914062 32.84375 -3.46875 C 32.90625 -4.03125 32.9375 -4.785156 32.9375 -5.734375 L 32.9375 -10.5 C 32.9375 -11.9375 32.859375 -13.148438 32.703125 -14.140625 C 32.554688 -15.140625 32.304688 -15.945312 31.953125 -16.5625 C 31.597656 -17.175781 31.132812 -17.617188 30.5625 -17.890625 C 30 -18.171875 29.316406 -18.3125 28.515625 -18.3125 C 27.398438 -18.3125 26.359375 -18.003906 25.390625 -17.390625 C 24.421875 -16.773438 23.660156 -15.953125 23.109375 -14.921875 C 22.984375 -14.671875 22.875 -14.425781 22.78125 -14.1875 C 22.695312 -13.945312 22.628906 -13.679688 22.578125 -13.390625 C 22.535156 -13.097656 22.503906 -12.75 22.484375 -12.34375 C 22.472656 -11.945312 22.46875 -11.445312 22.46875 -10.84375 L 22.46875 -6.046875 C 22.46875 -5.015625 22.492188 -4.195312 22.546875 -3.59375 C 22.597656 -2.988281 22.726562 -2.519531 22.9375 -2.1875 C 23.15625 -1.863281 23.476562 -1.648438 23.90625 -1.546875 C 24.332031 -1.441406 24.910156 -1.367188 25.640625 -1.328125 L 25.640625 0 L 15.59375 0 L 15.59375 -1.328125 C 16.300781 -1.367188 16.867188 -1.441406 17.296875 -1.546875 C 17.722656 -1.648438 18.039062 -1.851562 18.25 -2.15625 C 18.46875 -2.457031 18.609375 -2.890625 18.671875 -3.453125 C 18.734375 -4.023438 18.765625 -4.785156 18.765625 -5.734375 L 18.765625 -10.5 C 18.765625 -11.957031 18.6875 -13.179688 18.53125 -14.171875 C 18.382812 -15.171875 18.140625 -15.976562 17.796875 -16.59375 C 17.460938 -17.207031 17.019531 -17.644531 16.46875 -17.90625 C 15.914062 -18.175781 15.234375 -18.3125 14.421875 -18.3125 C 13.296875 -18.3125 12.234375 -18.003906 11.234375 -17.390625 C 10.242188 -16.773438 9.492188 -15.953125 8.984375 -14.921875 C 8.859375 -14.671875 8.75 -14.425781 8.65625 -14.1875 C 8.570312 -13.945312 8.503906 -13.679688 8.453125 -13.390625 C 8.410156 -13.097656 8.378906 -12.75 8.359375 -12.34375 C 8.347656 -11.945312 8.34375 -11.445312 8.34375 -10.84375 Z M 8.34375 -6.046875 "/></g></g></g><g fill="#ffffff" fill-opacity="1"><g transform="translate(84.126706, 115.541146)"><g><path d="M 0.734375 0.03125 C 0.660156 0.03125 0.601562 0.00390625 0.5625 -0.046875 C 0.53125 -0.0976562 0.515625 -0.15625 0.515625 -0.21875 C 0.523438 -0.34375 0.546875 -0.414062 0.578125 -0.4375 C 0.617188 -0.46875 0.695312 -0.484375 0.8125 -0.484375 C 1.039062 -0.484375 1.207031 -0.523438 1.3125 -0.609375 C 1.425781 -0.691406 1.5 -0.789062 1.53125 -0.90625 C 1.5625 -1.03125 1.578125 -1.191406 1.578125 -1.390625 L 1.578125 -6.109375 C 1.578125 -6.316406 1.5625 -6.476562 1.53125 -6.59375 C 1.5 -6.71875 1.425781 -6.820312 1.3125 -6.90625 C 1.207031 -7 1.039062 -7.046875 0.8125 -7.046875 L 0.734375 -7.046875 C 0.660156 -7.046875 0.609375 -7.054688 0.578125 -7.078125 C 0.546875 -7.109375 0.523438 -7.179688 0.515625 -7.296875 C 0.515625 -7.367188 0.53125 -7.429688 0.5625 -7.484375 C 0.601562 -7.535156 0.660156 -7.5625 0.734375 -7.5625 C 1.242188 -7.53125 1.710938 -7.515625 2.140625 -7.515625 L 4.203125 -7.515625 C 4.804688 -7.515625 5.3125 -7.421875 5.71875 -7.234375 C 6.132812 -7.046875 6.4375 -6.804688 6.625 -6.515625 C 6.820312 -6.222656 6.921875 -5.910156 6.921875 -5.578125 C 6.921875 -5.140625 6.742188 -4.738281 6.390625 -4.375 C 6.046875 -4.007812 5.578125 -3.75 4.984375 -3.59375 L 5.1875 -3.265625 C 5.519531 -2.722656 5.820312 -2.257812 6.09375 -1.875 C 6.363281 -1.488281 6.65625 -1.128906 6.96875 -0.796875 C 7.195312 -0.617188 7.4375 -0.515625 7.6875 -0.484375 C 7.707031 -0.484375 7.742188 -0.476562 7.796875 -0.46875 C 7.847656 -0.46875 7.890625 -0.445312 7.921875 -0.40625 C 7.960938 -0.363281 7.984375 -0.300781 7.984375 -0.21875 C 7.984375 -0.15625 7.960938 -0.0976562 7.921875 -0.046875 C 7.890625 0.00390625 7.835938 0.03125 7.765625 0.03125 L 7.46875 0.03125 C 7.113281 0.0078125 6.859375 0 6.703125 0 C 6.378906 -0.0625 6.101562 -0.171875 5.875 -0.328125 C 5.65625 -0.492188 5.429688 -0.726562 5.203125 -1.03125 C 4.972656 -1.332031 4.65625 -1.828125 4.25 -2.515625 L 4.03125 -2.859375 C 3.90625 -3.046875 3.785156 -3.171875 3.671875 -3.234375 C 3.566406 -3.304688 3.378906 -3.34375 3.109375 -3.34375 L 2.765625 -3.34375 L 2.765625 -1.390625 C 2.773438 -1.191406 2.789062 -1.03125 2.8125 -0.90625 C 2.84375 -0.789062 2.910156 -0.691406 3.015625 -0.609375 C 3.128906 -0.523438 3.304688 -0.484375 3.546875 -0.484375 L 3.609375 -0.484375 C 3.679688 -0.484375 3.734375 -0.46875 3.765625 -0.4375 C 3.804688 -0.40625 3.832031 -0.332031 3.84375 -0.21875 C 3.84375 -0.15625 3.820312 -0.0976562 3.78125 -0.046875 C 3.75 0.00390625 3.695312 0.03125 3.625 0.03125 C 3.113281 0.0078125 2.617188 0 2.140625 0 C 1.710938 0 1.242188 0.0078125 0.734375 0.03125 Z M 3.8125 -3.796875 C 5 -3.796875 5.59375 -4.351562 5.59375 -5.46875 C 5.59375 -5.925781 5.4375 -6.304688 5.125 -6.609375 C 4.8125 -6.921875 4.300781 -7.078125 3.59375 -7.078125 C 3.363281 -7.078125 3.1875 -7.050781 3.0625 -7 C 2.945312 -6.945312 2.867188 -6.851562 2.828125 -6.71875 C 2.785156 -6.582031 2.765625 -6.375 2.765625 -6.09375 L 2.765625 -3.796875 Z M 3.8125 -3.796875 "/></g></g></g><g fill="#ffffff" fill-opacity="1"><g transform="translate(96.900386, 115.541146)"><g><path d="M 0.71875 0.03125 C 0.644531 0.03125 0.585938 0.00390625 0.546875 -0.046875 C 0.515625 -0.0976562 0.5 -0.15625 0.5 -0.21875 C 0.507812 -0.34375 0.535156 -0.414062 0.578125 -0.4375 C 0.617188 -0.46875 0.691406 -0.484375 0.796875 -0.484375 C 1.023438 -0.484375 1.195312 -0.523438 1.3125 -0.609375 C 1.425781 -0.691406 1.5 -0.789062 1.53125 -0.90625 C 1.5625 -1.019531 1.578125 -1.179688 1.578125 -1.390625 L 1.578125 -6.125 C 1.578125 -6.332031 1.5625 -6.492188 1.53125 -6.609375 C 1.5 -6.734375 1.425781 -6.835938 1.3125 -6.921875 C 1.195312 -7.003906 1.023438 -7.046875 0.796875 -7.046875 L 0.734375 -7.046875 C 0.660156 -7.046875 0.601562 -7.054688 0.5625 -7.078125 C 0.53125 -7.109375 0.507812 -7.179688 0.5 -7.296875 C 0.5 -7.367188 0.515625 -7.429688 0.546875 -7.484375 C 0.585938 -7.535156 0.644531 -7.5625 0.71875 -7.5625 C 1.226562 -7.53125 1.703125 -7.515625 2.140625 -7.515625 C 2.609375 -7.515625 3.101562 -7.53125 3.625 -7.5625 C 3.695312 -7.5625 3.75 -7.535156 3.78125 -7.484375 C 3.820312 -7.429688 3.84375 -7.367188 3.84375 -7.296875 C 3.832031 -7.179688 3.804688 -7.109375 3.765625 -7.078125 C 3.722656 -7.054688 3.644531 -7.046875 3.53125 -7.046875 C 3.300781 -7.046875 3.128906 -7.003906 3.015625 -6.921875 C 2.898438 -6.835938 2.828125 -6.734375 2.796875 -6.609375 C 2.773438 -6.484375 2.757812 -6.320312 2.75 -6.125 L 2.75 -1.390625 C 2.757812 -1.191406 2.773438 -1.03125 2.796875 -0.90625 C 2.828125 -0.789062 2.898438 -0.691406 3.015625 -0.609375 C 3.128906 -0.523438 3.300781 -0.484375 3.53125 -0.484375 L 3.59375 -0.484375 C 3.675781 -0.484375 3.734375 -0.46875 3.765625 -0.4375 C 3.804688 -0.40625 3.832031 -0.332031 3.84375 -0.21875 C 3.84375 -0.15625 3.820312 -0.0976562 3.78125 -0.046875 C 3.75 0.00390625 3.695312 0.03125 3.625 0.03125 C 3.113281 0.0078125 2.617188 0 2.140625 0 C 1.703125 0 1.226562 0.0078125 0.71875 0.03125 Z M 0.71875 0.03125 "/></g></g></g><g fill="#ffffff" fill-opacity="1"><g transform="translate(106.012516, 115.541146)"><g><path d="M 3.15625 0.234375 C 2.320312 0.234375 1.679688 0.09375 1.234375 -0.1875 C 0.796875 -0.476562 0.578125 -0.910156 0.578125 -1.484375 C 0.578125 -1.765625 0.675781 -2 0.875 -2.1875 C 1.070312 -2.375 1.328125 -2.46875 1.640625 -2.46875 C 1.816406 -2.457031 1.953125 -2.410156 2.046875 -2.328125 C 2.140625 -2.242188 2.1875 -2.164062 2.1875 -2.09375 C 2.1875 -2.09375 2.144531 -2.066406 2.0625 -2.015625 C 1.988281 -1.960938 1.921875 -1.890625 1.859375 -1.796875 C 1.796875 -1.703125 1.765625 -1.570312 1.765625 -1.40625 C 1.765625 -1.03125 1.875 -0.738281 2.09375 -0.53125 C 2.320312 -0.332031 2.675781 -0.234375 3.15625 -0.234375 C 3.476562 -0.234375 3.765625 -0.296875 4.015625 -0.421875 C 4.265625 -0.554688 4.453125 -0.726562 4.578125 -0.9375 C 4.710938 -1.144531 4.78125 -1.363281 4.78125 -1.59375 C 4.78125 -1.882812 4.695312 -2.128906 4.53125 -2.328125 C 4.375 -2.535156 4.175781 -2.707031 3.9375 -2.84375 C 3.695312 -2.988281 3.367188 -3.15625 2.953125 -3.34375 C 2.472656 -3.550781 2.085938 -3.742188 1.796875 -3.921875 C 1.503906 -4.097656 1.253906 -4.332031 1.046875 -4.625 C 0.835938 -4.914062 0.734375 -5.273438 0.734375 -5.703125 C 0.734375 -6.390625 0.96875 -6.90625 1.4375 -7.25 C 1.914062 -7.59375 2.539062 -7.765625 3.3125 -7.765625 C 3.914062 -7.765625 4.441406 -7.632812 4.890625 -7.375 C 5.335938 -7.125 5.5625 -6.753906 5.5625 -6.265625 C 5.5625 -5.972656 5.460938 -5.734375 5.265625 -5.546875 C 5.078125 -5.359375 4.828125 -5.265625 4.515625 -5.265625 C 4.335938 -5.273438 4.195312 -5.320312 4.09375 -5.40625 C 4 -5.488281 3.953125 -5.566406 3.953125 -5.640625 C 3.953125 -5.648438 4.003906 -5.675781 4.109375 -5.71875 C 4.222656 -5.769531 4.320312 -5.84375 4.40625 -5.9375 C 4.488281 -6.03125 4.53125 -6.160156 4.53125 -6.328125 C 4.53125 -6.617188 4.414062 -6.847656 4.1875 -7.015625 C 3.957031 -7.179688 3.671875 -7.265625 3.328125 -7.265625 C 2.835938 -7.265625 2.46875 -7.148438 2.21875 -6.921875 C 1.96875 -6.703125 1.84375 -6.425781 1.84375 -6.09375 C 1.84375 -5.8125 1.914062 -5.578125 2.0625 -5.390625 C 2.21875 -5.203125 2.460938 -5.019531 2.796875 -4.84375 C 3.066406 -4.695312 3.363281 -4.550781 3.6875 -4.40625 C 4.195312 -4.175781 4.597656 -3.96875 4.890625 -3.78125 C 5.191406 -3.59375 5.441406 -3.34375 5.640625 -3.03125 C 5.847656 -2.71875 5.953125 -2.332031 5.953125 -1.875 C 5.953125 -1.476562 5.828125 -1.117188 5.578125 -0.796875 C 5.328125 -0.472656 4.988281 -0.21875 4.5625 -0.03125 C 4.132812 0.144531 3.664062 0.234375 3.15625 0.234375 Z M 3.15625 0.234375 "/></g></g></g><g fill="#ffffff" fill-opacity="1"><g transform="translate(117.28341, 115.541146)"><g><path d="M 0.71875 0.03125 C 0.65625 0.03125 0.601562 0.00390625 0.5625 -0.046875 C 0.53125 -0.0976562 0.515625 -0.15625 0.515625 -0.21875 C 0.523438 -0.34375 0.546875 -0.414062 0.578125 -0.4375 C 0.617188 -0.46875 0.695312 -0.484375 0.8125 -0.484375 C 1.039062 -0.484375 1.207031 -0.523438 1.3125 -0.609375 C 1.425781 -0.691406 1.5 -0.789062 1.53125 -0.90625 C 1.5625 -1.03125 1.578125 -1.191406 1.578125 -1.390625 L 1.578125 -6.125 C 1.578125 -6.320312 1.5625 -6.484375 1.53125 -6.609375 C 1.5 -6.734375 1.425781 -6.835938 1.3125 -6.921875 C 1.207031 -7.003906 1.039062 -7.046875 0.8125 -7.046875 L 0.734375 -7.046875 C 0.660156 -7.046875 0.609375 -7.054688 0.578125 -7.078125 C 0.546875 -7.109375 0.523438 -7.179688 0.515625 -7.296875 C 0.515625 -7.367188 0.53125 -7.429688 0.5625 -7.484375 C 0.601562 -7.535156 0.65625 -7.5625 0.71875 -7.5625 C 1.238281 -7.53125 1.710938 -7.515625 2.140625 -7.515625 L 5.875 -7.515625 C 6.082031 -7.515625 6.1875 -7.421875 6.1875 -7.234375 L 6.21875 -5.5625 C 6.21875 -5.488281 6.179688 -5.429688 6.109375 -5.390625 C 6.046875 -5.347656 5.976562 -5.328125 5.90625 -5.328125 C 5.8125 -5.328125 5.726562 -5.34375 5.65625 -5.375 C 5.582031 -5.414062 5.539062 -5.472656 5.53125 -5.546875 C 5.46875 -5.929688 5.394531 -6.222656 5.3125 -6.421875 C 5.238281 -6.628906 5.128906 -6.78125 4.984375 -6.875 C 4.835938 -6.976562 4.628906 -7.035156 4.359375 -7.046875 L 2.765625 -7.046875 L 2.765625 -4.015625 L 4.921875 -4.015625 C 4.972656 -4.003906 5.015625 -3.972656 5.046875 -3.921875 C 5.085938 -3.867188 5.109375 -3.8125 5.109375 -3.75 C 5.109375 -3.675781 5.085938 -3.613281 5.046875 -3.5625 C 5.015625 -3.519531 4.972656 -3.5 4.921875 -3.5 L 2.765625 -3.5 L 2.765625 -1.25 C 2.785156 -1.082031 2.804688 -0.945312 2.828125 -0.84375 C 2.847656 -0.75 2.914062 -0.660156 3.03125 -0.578125 C 3.15625 -0.503906 3.34375 -0.472656 3.59375 -0.484375 L 4.703125 -0.484375 C 4.972656 -0.484375 5.179688 -0.523438 5.328125 -0.609375 C 5.472656 -0.691406 5.585938 -0.820312 5.671875 -1 C 5.753906 -1.175781 5.851562 -1.460938 5.96875 -1.859375 C 6.03125 -2.003906 6.164062 -2.0625 6.375 -2.03125 C 6.457031 -2.007812 6.523438 -1.972656 6.578125 -1.921875 C 6.640625 -1.878906 6.671875 -1.820312 6.671875 -1.75 L 6.421875 -0.25 C 6.398438 -0.144531 6.363281 -0.078125 6.3125 -0.046875 C 6.269531 -0.015625 6.191406 0 6.078125 0 L 2.140625 0 C 1.710938 0 1.238281 0.0078125 0.71875 0.03125 Z M 0.71875 0.03125 "/></g></g></g><g fill="#ffffff" fill-opacity="1"><g transform="translate(129.138717, 115.541146)"><g/></g></g><g fill="#ffffff" fill-opacity="1"><g transform="translate(136.569167, 115.541146)"><g><path d="M 0.078125 0.03125 C 0.00390625 0.03125 -0.046875 0.00390625 -0.078125 -0.046875 C -0.117188 -0.0976562 -0.140625 -0.15625 -0.140625 -0.21875 C -0.128906 -0.34375 -0.101562 -0.414062 -0.0625 -0.4375 C -0.03125 -0.46875 0.0078125 -0.484375 0.0625 -0.484375 C 0.125 -0.484375 0.160156 -0.484375 0.171875 -0.484375 C 0.410156 -0.484375 0.585938 -0.539062 0.703125 -0.65625 C 0.816406 -0.78125 0.90625 -0.921875 0.96875 -1.078125 C 1.039062 -1.234375 1.085938 -1.335938 1.109375 -1.390625 L 3.1875 -6.328125 C 3.238281 -6.453125 3.265625 -6.546875 3.265625 -6.609375 C 3.265625 -6.753906 3.207031 -6.859375 3.09375 -6.921875 C 2.988281 -6.984375 2.835938 -7.035156 2.640625 -7.078125 C 2.503906 -7.109375 2.421875 -7.132812 2.390625 -7.15625 C 2.359375 -7.175781 2.34375 -7.242188 2.34375 -7.359375 C 2.34375 -7.453125 2.363281 -7.515625 2.40625 -7.546875 C 2.457031 -7.578125 2.539062 -7.59375 2.65625 -7.59375 C 3.050781 -7.59375 3.363281 -7.5625 3.59375 -7.5 C 3.832031 -7.445312 4.039062 -7.328125 4.21875 -7.140625 C 4.394531 -6.960938 4.554688 -6.691406 4.703125 -6.328125 L 6.71875 -1.390625 C 6.832031 -1.085938 6.941406 -0.859375 7.046875 -0.703125 C 7.160156 -0.554688 7.332031 -0.484375 7.5625 -0.484375 L 7.625 -0.484375 C 7.707031 -0.484375 7.765625 -0.46875 7.796875 -0.4375 C 7.828125 -0.40625 7.847656 -0.332031 7.859375 -0.21875 C 7.859375 -0.15625 7.835938 -0.0976562 7.796875 -0.046875 C 7.765625 0.00390625 7.710938 0.03125 7.640625 0.03125 C 7.128906 0.0078125 6.691406 0 6.328125 0 C 5.847656 0 5.359375 0.0078125 4.859375 0.03125 C 4.785156 0.03125 4.726562 0.00390625 4.6875 -0.046875 C 4.65625 -0.0976562 4.640625 -0.15625 4.640625 -0.21875 C 4.648438 -0.332031 4.671875 -0.40625 4.703125 -0.4375 C 4.734375 -0.46875 4.785156 -0.484375 4.859375 -0.484375 C 5.128906 -0.484375 5.320312 -0.503906 5.4375 -0.546875 C 5.550781 -0.597656 5.609375 -0.691406 5.609375 -0.828125 C 5.609375 -0.929688 5.554688 -1.117188 5.453125 -1.390625 L 5.0625 -2.390625 L 2.109375 -2.390625 C 1.910156 -1.890625 1.796875 -1.597656 1.765625 -1.515625 C 1.742188 -1.441406 1.734375 -1.398438 1.734375 -1.390625 C 1.628906 -1.085938 1.578125 -0.894531 1.578125 -0.8125 C 1.578125 -0.675781 1.632812 -0.585938 1.75 -0.546875 C 1.875 -0.503906 2.101562 -0.484375 2.4375 -0.484375 L 2.515625 -0.484375 C 2.597656 -0.484375 2.65625 -0.46875 2.6875 -0.4375 C 2.71875 -0.40625 2.734375 -0.332031 2.734375 -0.21875 C 2.734375 -0.15625 2.71875 -0.0976562 2.6875 -0.046875 C 2.65625 0.00390625 2.601562 0.03125 2.53125 0.03125 C 2.019531 0.0078125 1.585938 0 1.234375 0 C 0.972656 0 0.585938 0.0078125 0.078125 0.03125 Z M 2.34375 -2.890625 L 4.84375 -2.890625 L 3.640625 -5.96875 L 3.59375 -5.96875 Z M 2.34375 -2.890625 "/></g></g></g><g fill="#ffffff" fill-opacity="1"><g transform="translate(149.128167, 115.541146)"><g><path d="M 0.71875 0.03125 C 0.644531 0.03125 0.585938 0.00390625 0.546875 -0.046875 C 0.515625 -0.0976562 0.5 -0.15625 0.5 -0.21875 C 0.507812 -0.34375 0.53125 -0.414062 0.5625 -0.4375 C 0.601562 -0.46875 0.679688 -0.484375 0.796875 -0.484375 C 1.023438 -0.484375 1.195312 -0.523438 1.3125 -0.609375 C 1.425781 -0.691406 1.492188 -0.789062 1.515625 -0.90625 C 1.546875 -1.03125 1.566406 -1.191406 1.578125 -1.390625 L 1.578125 -6.125 C 1.566406 -6.320312 1.546875 -6.484375 1.515625 -6.609375 C 1.492188 -6.734375 1.425781 -6.835938 1.3125 -6.921875 C 1.195312 -7.003906 1.023438 -7.046875 0.796875 -7.046875 L 0.734375 -7.046875 C 0.648438 -7.046875 0.59375 -7.054688 0.5625 -7.078125 C 0.53125 -7.109375 0.507812 -7.179688 0.5 -7.296875 C 0.5 -7.367188 0.515625 -7.429688 0.546875 -7.484375 C 0.585938 -7.535156 0.644531 -7.5625 0.71875 -7.5625 C 1.226562 -7.53125 1.695312 -7.515625 2.125 -7.515625 L 3.796875 -7.515625 C 4.234375 -7.515625 4.585938 -7.484375 4.859375 -7.421875 C 5.128906 -7.359375 5.375 -7.257812 5.59375 -7.125 C 5.800781 -6.988281 5.960938 -6.800781 6.078125 -6.5625 C 6.203125 -6.332031 6.265625 -6.082031 6.265625 -5.8125 C 6.265625 -5.3125 6.101562 -4.914062 5.78125 -4.625 C 5.457031 -4.34375 5.082031 -4.148438 4.65625 -4.046875 L 4.65625 -4 C 5.0625 -4 5.429688 -3.914062 5.765625 -3.75 C 6.109375 -3.59375 6.375 -3.375 6.5625 -3.09375 C 6.75 -2.820312 6.84375 -2.53125 6.84375 -2.21875 C 6.84375 -1.675781 6.675781 -1.238281 6.34375 -0.90625 C 6.019531 -0.570312 5.609375 -0.332031 5.109375 -0.1875 C 4.609375 -0.0507812 4.09375 0.015625 3.5625 0.015625 L 2.140625 0 C 1.703125 0 1.226562 0.0078125 0.71875 0.03125 Z M 3.25 -4.25 C 3.570312 -4.25 3.847656 -4.269531 4.078125 -4.3125 C 4.316406 -4.363281 4.523438 -4.488281 4.703125 -4.6875 C 4.890625 -4.894531 4.984375 -5.21875 4.984375 -5.65625 C 4.984375 -6.601562 4.519531 -7.078125 3.59375 -7.078125 L 2.75 -7.078125 L 2.75 -4.25 Z M 3.609375 -0.46875 C 4.203125 -0.476562 4.675781 -0.625 5.03125 -0.90625 C 5.382812 -1.1875 5.5625 -1.644531 5.5625 -2.28125 C 5.519531 -2.71875 5.316406 -3.070312 4.953125 -3.34375 C 4.585938 -3.625 4.019531 -3.765625 3.25 -3.765625 L 2.75 -3.765625 L 2.75 -1.390625 C 2.75 -1.117188 2.773438 -0.914062 2.828125 -0.78125 C 2.878906 -0.65625 2.960938 -0.570312 3.078125 -0.53125 C 3.191406 -0.488281 3.367188 -0.46875 3.609375 -0.46875 Z M 3.609375 -0.46875 "/></g></g></g><g fill="#ffffff" fill-opacity="1"><g transform="translate(161.305503, 115.541146)"><g><path d="M 4.359375 0.234375 C 3.609375 0.234375 2.941406 0.0546875 2.359375 -0.296875 C 1.785156 -0.660156 1.34375 -1.140625 1.03125 -1.734375 C 0.71875 -2.335938 0.5625 -2.976562 0.5625 -3.65625 C 0.5625 -4.488281 0.75 -5.210938 1.125 -5.828125 C 1.5 -6.453125 1.976562 -6.929688 2.5625 -7.265625 C 3.15625 -7.597656 3.753906 -7.765625 4.359375 -7.765625 C 5.128906 -7.765625 5.804688 -7.582031 6.390625 -7.21875 C 6.972656 -6.851562 7.421875 -6.375 7.734375 -5.78125 C 8.046875 -5.195312 8.203125 -4.5625 8.203125 -3.875 C 8.203125 -3.039062 8.007812 -2.3125 7.625 -1.6875 C 7.25 -1.0625 6.757812 -0.582031 6.15625 -0.25 C 5.5625 0.0703125 4.960938 0.234375 4.359375 0.234375 Z M 4.34375 -0.28125 C 4.882812 -0.28125 5.335938 -0.441406 5.703125 -0.765625 C 6.066406 -1.085938 6.335938 -1.519531 6.515625 -2.0625 C 6.691406 -2.613281 6.78125 -3.21875 6.78125 -3.875 C 6.78125 -4.488281 6.6875 -5.050781 6.5 -5.5625 C 6.320312 -6.070312 6.050781 -6.476562 5.6875 -6.78125 C 5.320312 -7.09375 4.875 -7.25 4.34375 -7.25 C 3.550781 -7.25 2.953125 -6.910156 2.546875 -6.234375 C 2.148438 -5.566406 1.953125 -4.722656 1.953125 -3.703125 C 1.953125 -3.078125 2.039062 -2.503906 2.21875 -1.984375 C 2.394531 -1.472656 2.660156 -1.0625 3.015625 -0.75 C 3.378906 -0.4375 3.820312 -0.28125 4.34375 -0.28125 Z M 4.34375 -0.28125 "/></g></g></g><g fill="#ffffff" fill-opacity="1"><g transform="translate(174.842502, 115.541146)"><g><path d="M 3.625 0.125 C 3.382812 -0.53125 3.003906 -1.566406 2.484375 -2.984375 C 1.972656 -4.410156 1.597656 -5.441406 1.359375 -6.078125 C 1.222656 -6.421875 1.09375 -6.660156 0.96875 -6.796875 C 0.84375 -6.929688 0.65625 -7.019531 0.40625 -7.0625 C 0.375 -7.070312 0.328125 -7.082031 0.265625 -7.09375 C 0.203125 -7.113281 0.160156 -7.140625 0.140625 -7.171875 C 0.117188 -7.203125 0.109375 -7.257812 0.109375 -7.34375 C 0.109375 -7.4375 0.132812 -7.5 0.1875 -7.53125 C 0.238281 -7.5625 0.316406 -7.578125 0.421875 -7.578125 C 1.023438 -7.578125 1.476562 -7.484375 1.78125 -7.296875 C 2.09375 -7.117188 2.34375 -6.796875 2.53125 -6.328125 L 4.25 -1.6875 L 4.296875 -1.6875 L 5.9375 -6.46875 C 5.988281 -6.601562 6.015625 -6.703125 6.015625 -6.765625 C 6.015625 -6.878906 5.96875 -6.953125 5.875 -6.984375 C 5.78125 -7.023438 5.625 -7.046875 5.40625 -7.046875 L 5.34375 -7.046875 C 5.257812 -7.046875 5.203125 -7.054688 5.171875 -7.078125 C 5.140625 -7.109375 5.117188 -7.179688 5.109375 -7.296875 C 5.109375 -7.367188 5.125 -7.429688 5.15625 -7.484375 C 5.195312 -7.535156 5.25 -7.5625 5.3125 -7.5625 C 5.832031 -7.53125 6.265625 -7.515625 6.609375 -7.515625 C 6.765625 -7.515625 7.054688 -7.523438 7.484375 -7.546875 L 7.734375 -7.5625 C 7.804688 -7.5625 7.859375 -7.535156 7.890625 -7.484375 C 7.929688 -7.429688 7.953125 -7.367188 7.953125 -7.296875 C 7.941406 -7.179688 7.921875 -7.109375 7.890625 -7.078125 C 7.859375 -7.054688 7.800781 -7.046875 7.71875 -7.046875 C 7.382812 -7.046875 7.125 -6.988281 6.9375 -6.875 C 6.757812 -6.769531 6.609375 -6.554688 6.484375 -6.234375 C 6.242188 -5.578125 5.859375 -4.519531 5.328125 -3.0625 C 4.804688 -1.601562 4.425781 -0.539062 4.1875 0.125 Z M 3.625 0.125 "/></g></g></g><g fill="#ffffff" fill-opacity="1"><g transform="translate(187.341867, 115.541146)"><g><path d="M 0.71875 0.03125 C 0.65625 0.03125 0.601562 0.00390625 0.5625 -0.046875 C 0.53125 -0.0976562 0.515625 -0.15625 0.515625 -0.21875 C 0.523438 -0.34375 0.546875 -0.414062 0.578125 -0.4375 C 0.617188 -0.46875 0.695312 -0.484375 0.8125 -0.484375 C 1.039062 -0.484375 1.207031 -0.523438 1.3125 -0.609375 C 1.425781 -0.691406 1.5 -0.789062 1.53125 -0.90625 C 1.5625 -1.03125 1.578125 -1.191406 1.578125 -1.390625 L 1.578125 -6.125 C 1.578125 -6.320312 1.5625 -6.484375 1.53125 -6.609375 C 1.5 -6.734375 1.425781 -6.835938 1.3125 -6.921875 C 1.207031 -7.003906 1.039062 -7.046875 0.8125 -7.046875 L 0.734375 -7.046875 C 0.660156 -7.046875 0.609375 -7.054688 0.578125 -7.078125 C 0.546875 -7.109375 0.523438 -7.179688 0.515625 -7.296875 C 0.515625 -7.367188 0.53125 -7.429688 0.5625 -7.484375 C 0.601562 -7.535156 0.65625 -7.5625 0.71875 -7.5625 C 1.238281 -7.53125 1.710938 -7.515625 2.140625 -7.515625 L 5.875 -7.515625 C 6.082031 -7.515625 6.1875 -7.421875 6.1875 -7.234375 L 6.21875 -5.5625 C 6.21875 -5.488281 6.179688 -5.429688 6.109375 -5.390625 C 6.046875 -5.347656 5.976562 -5.328125 5.90625 -5.328125 C 5.8125 -5.328125 5.726562 -5.34375 5.65625 -5.375 C 5.582031 -5.414062 5.539062 -5.472656 5.53125 -5.546875 C 5.46875 -5.929688 5.394531 -6.222656 5.3125 -6.421875 C 5.238281 -6.628906 5.128906 -6.78125 4.984375 -6.875 C 4.835938 -6.976562 4.628906 -7.035156 4.359375 -7.046875 L 2.765625 -7.046875 L 2.765625 -4.015625 L 4.921875 -4.015625 C 4.972656 -4.003906 5.015625 -3.972656 5.046875 -3.921875 C 5.085938 -3.867188 5.109375 -3.8125 5.109375 -3.75 C 5.109375 -3.675781 5.085938 -3.613281 5.046875 -3.5625 C 5.015625 -3.519531 4.972656 -3.5 4.921875 -3.5 L 2.765625 -3.5 L 2.765625 -1.25 C 2.785156 -1.082031 2.804688 -0.945312 2.828125 -0.84375 C 2.847656 -0.75 2.914062 -0.660156 3.03125 -0.578125 C 3.15625 -0.503906 3.34375 -0.472656 3.59375 -0.484375 L 4.703125 -0.484375 C 4.972656 -0.484375 5.179688 -0.523438 5.328125 -0.609375 C 5.472656 -0.691406 5.585938 -0.820312 5.671875 -1 C 5.753906 -1.175781 5.851562 -1.460938 5.96875 -1.859375 C 6.03125 -2.003906 6.164062 -2.0625 6.375 -2.03125 C 6.457031 -2.007812 6.523438 -1.972656 6.578125 -1.921875 C 6.640625 -1.878906 6.671875 -1.820312 6.671875 -1.75 L 6.421875 -0.25 C 6.398438 -0.144531 6.363281 -0.078125 6.3125 -0.046875 C 6.269531 -0.015625 6.191406 0 6.078125 0 L 2.140625 0 C 1.710938 0 1.238281 0.0078125 0.71875 0.03125 Z M 0.71875 0.03125 "/></g></g></g><g fill="#ffffff" fill-opacity="1"><g transform="translate(199.197174, 115.541146)"><g/></g></g><g fill="#ffffff" fill-opacity="1"><g transform="translate(206.627624, 115.541146)"><g><path d="M 0.734375 0.03125 C 0.660156 0.03125 0.601562 0.00390625 0.5625 -0.046875 C 0.53125 -0.0976562 0.515625 -0.15625 0.515625 -0.21875 C 0.523438 -0.34375 0.546875 -0.414062 0.578125 -0.4375 C 0.617188 -0.46875 0.695312 -0.484375 0.8125 -0.484375 C 1.039062 -0.484375 1.207031 -0.523438 1.3125 -0.609375 C 1.425781 -0.691406 1.5 -0.789062 1.53125 -0.90625 C 1.5625 -1.03125 1.578125 -1.191406 1.578125 -1.390625 L 1.578125 -6.125 C 1.578125 -6.320312 1.5625 -6.484375 1.53125 -6.609375 C 1.5 -6.734375 1.425781 -6.835938 1.3125 -6.921875 C 1.207031 -7.003906 1.039062 -7.046875 0.8125 -7.046875 L 0.734375 -7.046875 C 0.660156 -7.046875 0.609375 -7.054688 0.578125 -7.078125 C 0.546875 -7.109375 0.523438 -7.179688 0.515625 -7.296875 C 0.515625 -7.367188 0.53125 -7.429688 0.5625 -7.484375 C 0.601562 -7.535156 0.660156 -7.5625 0.734375 -7.5625 C 1.242188 -7.53125 1.710938 -7.515625 2.140625 -7.515625 C 2.609375 -7.515625 3.101562 -7.53125 3.625 -7.5625 C 3.695312 -7.5625 3.75 -7.535156 3.78125 -7.484375 C 3.820312 -7.429688 3.84375 -7.367188 3.84375 -7.296875 C 3.832031 -7.179688 3.804688 -7.109375 3.765625 -7.078125 C 3.722656 -7.054688 3.648438 -7.046875 3.546875 -7.046875 C 3.304688 -7.046875 3.128906 -7.003906 3.015625 -6.921875 C 2.910156 -6.835938 2.84375 -6.734375 2.8125 -6.609375 C 2.789062 -6.484375 2.773438 -6.320312 2.765625 -6.125 L 2.765625 -4.015625 L 6.515625 -4.015625 L 6.515625 -6.125 C 6.503906 -6.320312 6.484375 -6.484375 6.453125 -6.609375 C 6.421875 -6.734375 6.347656 -6.835938 6.234375 -6.921875 C 6.128906 -7.003906 5.960938 -7.046875 5.734375 -7.046875 L 5.65625 -7.046875 C 5.582031 -7.046875 5.523438 -7.054688 5.484375 -7.078125 C 5.453125 -7.109375 5.429688 -7.179688 5.421875 -7.296875 C 5.421875 -7.367188 5.441406 -7.429688 5.484375 -7.484375 C 5.523438 -7.535156 5.578125 -7.5625 5.640625 -7.5625 C 6.148438 -7.53125 6.644531 -7.515625 7.125 -7.515625 C 7.5625 -7.515625 8.035156 -7.53125 8.546875 -7.5625 C 8.617188 -7.5625 8.671875 -7.535156 8.703125 -7.484375 C 8.742188 -7.429688 8.765625 -7.367188 8.765625 -7.296875 C 8.753906 -7.179688 8.726562 -7.109375 8.6875 -7.078125 C 8.644531 -7.054688 8.570312 -7.046875 8.46875 -7.046875 C 8.238281 -7.046875 8.0625 -7.003906 7.9375 -6.921875 C 7.820312 -6.835938 7.75 -6.734375 7.71875 -6.609375 C 7.695312 -6.484375 7.679688 -6.320312 7.671875 -6.125 L 7.671875 -1.390625 C 7.679688 -1.191406 7.695312 -1.03125 7.71875 -0.90625 C 7.75 -0.789062 7.820312 -0.691406 7.9375 -0.609375 C 8.0625 -0.523438 8.238281 -0.484375 8.46875 -0.484375 L 8.53125 -0.484375 C 8.601562 -0.484375 8.65625 -0.46875 8.6875 -0.4375 C 8.726562 -0.40625 8.753906 -0.332031 8.765625 -0.21875 C 8.765625 -0.15625 8.742188 -0.0976562 8.703125 -0.046875 C 8.671875 0.00390625 8.617188 0.03125 8.546875 0.03125 C 8.035156 0.0078125 7.5625 0 7.125 0 C 6.644531 0 6.148438 0.0078125 5.640625 0.03125 C 5.578125 0.03125 5.523438 0.00390625 5.484375 -0.046875 C 5.441406 -0.0976562 5.421875 -0.15625 5.421875 -0.21875 C 5.429688 -0.34375 5.457031 -0.414062 5.5 -0.4375 C 5.539062 -0.46875 5.617188 -0.484375 5.734375 -0.484375 C 5.960938 -0.484375 6.128906 -0.523438 6.234375 -0.609375 C 6.347656 -0.691406 6.421875 -0.789062 6.453125 -0.90625 C 6.484375 -1.03125 6.503906 -1.191406 6.515625 -1.390625 L 6.515625 -3.5 L 2.765625 -3.5 L 2.765625 -1.390625 C 2.773438 -1.191406 2.789062 -1.03125 2.8125 -0.90625 C 2.84375 -0.789062 2.910156 -0.691406 3.015625 -0.609375 C 3.128906 -0.523438 3.304688 -0.484375 3.546875 -0.484375 L 3.609375 -0.484375 C 3.691406 -0.484375 3.75 -0.46875 3.78125 -0.4375 C 3.8125 -0.40625 3.832031 -0.332031 3.84375 -0.21875 C 3.84375 -0.15625 3.820312 -0.0976562 3.78125 -0.046875 C 3.75 0.00390625 3.695312 0.03125 3.625 0.03125 C 3.113281 0.0078125 2.617188 0 2.140625 0 C 1.710938 0 1.242188 0.0078125 0.734375 0.03125 Z M 0.734375 0.03125 "/></g></g></g><g fill="#ffffff" fill-opacity="1"><g transform="translate(220.665547, 115.541146)"><g><path d="M 0.078125 0.03125 C 0.00390625 0.03125 -0.046875 0.00390625 -0.078125 -0.046875 C -0.117188 -0.0976562 -0.140625 -0.15625 -0.140625 -0.21875 C -0.128906 -0.34375 -0.101562 -0.414062 -0.0625 -0.4375 C -0.03125 -0.46875 0.0078125 -0.484375 0.0625 -0.484375 C 0.125 -0.484375 0.160156 -0.484375 0.171875 -0.484375 C 0.410156 -0.484375 0.585938 -0.539062 0.703125 -0.65625 C 0.816406 -0.78125 0.90625 -0.921875 0.96875 -1.078125 C 1.039062 -1.234375 1.085938 -1.335938 1.109375 -1.390625 L 3.1875 -6.328125 C 3.238281 -6.453125 3.265625 -6.546875 3.265625 -6.609375 C 3.265625 -6.753906 3.207031 -6.859375 3.09375 -6.921875 C 2.988281 -6.984375 2.835938 -7.035156 2.640625 -7.078125 C 2.503906 -7.109375 2.421875 -7.132812 2.390625 -7.15625 C 2.359375 -7.175781 2.34375 -7.242188 2.34375 -7.359375 C 2.34375 -7.453125 2.363281 -7.515625 2.40625 -7.546875 C 2.457031 -7.578125 2.539062 -7.59375 2.65625 -7.59375 C 3.050781 -7.59375 3.363281 -7.5625 3.59375 -7.5 C 3.832031 -7.445312 4.039062 -7.328125 4.21875 -7.140625 C 4.394531 -6.960938 4.554688 -6.691406 4.703125 -6.328125 L 6.71875 -1.390625 C 6.832031 -1.085938 6.941406 -0.859375 7.046875 -0.703125 C 7.160156 -0.554688 7.332031 -0.484375 7.5625 -0.484375 L 7.625 -0.484375 C 7.707031 -0.484375 7.765625 -0.46875 7.796875 -0.4375 C 7.828125 -0.40625 7.847656 -0.332031 7.859375 -0.21875 C 7.859375 -0.15625 7.835938 -0.0976562 7.796875 -0.046875 C 7.765625 0.00390625 7.710938 0.03125 7.640625 0.03125 C 7.128906 0.0078125 6.691406 0 6.328125 0 C 5.847656 0 5.359375 0.0078125 4.859375 0.03125 C 4.785156 0.03125 4.726562 0.00390625 4.6875 -0.046875 C 4.65625 -0.0976562 4.640625 -0.15625 4.640625 -0.21875 C 4.648438 -0.332031 4.671875 -0.40625 4.703125 -0.4375 C 4.734375 -0.46875 4.785156 -0.484375 4.859375 -0.484375 C 5.128906 -0.484375 5.320312 -0.503906 5.4375 -0.546875 C 5.550781 -0.597656 5.609375 -0.691406 5.609375 -0.828125 C 5.609375 -0.929688 5.554688 -1.117188 5.453125 -1.390625 L 5.0625 -2.390625 L 2.109375 -2.390625 C 1.910156 -1.890625 1.796875 -1.597656 1.765625 -1.515625 C 1.742188 -1.441406 1.734375 -1.398438 1.734375 -1.390625 C 1.628906 -1.085938 1.578125 -0.894531 1.578125 -0.8125 C 1.578125 -0.675781 1.632812 -0.585938 1.75 -0.546875 C 1.875 -0.503906 2.101562 -0.484375 2.4375 -0.484375 L 2.515625 -0.484375 C 2.597656 -0.484375 2.65625 -0.46875 2.6875 -0.4375 C 2.71875 -0.40625 2.734375 -0.332031 2.734375 -0.21875 C 2.734375 -0.15625 2.71875 -0.0976562 2.6875 -0.046875 C 2.65625 0.00390625 2.601562 0.03125 2.53125 0.03125 C 2.019531 0.0078125 1.585938 0 1.234375 0 C 0.972656 0 0.585938 0.0078125 0.078125 0.03125 Z M 2.34375 -2.890625 L 4.84375 -2.890625 L 3.640625 -5.96875 L 3.59375 -5.96875 Z M 2.34375 -2.890625 "/></g></g></g><g fill="#ffffff" fill-opacity="1"><g transform="translate(233.224548, 115.541146)"><g><path d="M 2.140625 0.03125 C 2.066406 0.03125 2.007812 0.00390625 1.96875 -0.046875 C 1.9375 -0.0976562 1.921875 -0.15625 1.921875 -0.21875 C 1.929688 -0.34375 1.953125 -0.414062 1.984375 -0.4375 C 2.023438 -0.46875 2.101562 -0.484375 2.21875 -0.484375 C 2.445312 -0.484375 2.613281 -0.523438 2.71875 -0.609375 C 2.832031 -0.691406 2.90625 -0.789062 2.9375 -0.90625 C 2.96875 -1.03125 2.988281 -1.191406 3 -1.390625 L 3 -7.078125 L 2.171875 -7.078125 C 1.898438 -7.066406 1.691406 -7.007812 1.546875 -6.90625 C 1.398438 -6.800781 1.285156 -6.640625 1.203125 -6.421875 C 1.128906 -6.210938 1.066406 -5.914062 1.015625 -5.53125 C 1.003906 -5.46875 0.953125 -5.414062 0.859375 -5.375 C 0.773438 -5.332031 0.6875 -5.3125 0.59375 -5.3125 C 0.519531 -5.3125 0.453125 -5.332031 0.390625 -5.375 C 0.335938 -5.425781 0.3125 -5.488281 0.3125 -5.5625 L 0.34375 -7.234375 C 0.34375 -7.421875 0.453125 -7.515625 0.671875 -7.515625 L 6.5 -7.515625 C 6.707031 -7.515625 6.8125 -7.421875 6.8125 -7.234375 L 6.859375 -5.5625 C 6.859375 -5.488281 6.828125 -5.425781 6.765625 -5.375 C 6.703125 -5.332031 6.632812 -5.3125 6.5625 -5.3125 C 6.457031 -5.3125 6.363281 -5.332031 6.28125 -5.375 C 6.195312 -5.414062 6.15625 -5.46875 6.15625 -5.53125 C 6.09375 -5.925781 6.023438 -6.226562 5.953125 -6.4375 C 5.878906 -6.644531 5.765625 -6.800781 5.609375 -6.90625 C 5.460938 -7.007812 5.253906 -7.066406 4.984375 -7.078125 L 4.171875 -7.078125 L 4.171875 -1.390625 C 4.179688 -1.191406 4.195312 -1.03125 4.21875 -0.90625 C 4.25 -0.789062 4.320312 -0.691406 4.4375 -0.609375 C 4.550781 -0.523438 4.722656 -0.484375 4.953125 -0.484375 L 5.015625 -0.484375 C 5.085938 -0.484375 5.140625 -0.46875 5.171875 -0.4375 C 5.210938 -0.40625 5.238281 -0.332031 5.25 -0.21875 C 5.25 -0.15625 5.226562 -0.0976562 5.1875 -0.046875 C 5.15625 0.00390625 5.101562 0.03125 5.03125 0.03125 C 4.519531 0.0078125 4.050781 0 3.625 0 C 3.144531 0 2.648438 0.0078125 2.140625 0.03125 Z M 2.140625 0.03125 "/></g></g></g><g fill="#ffffff" fill-opacity="1"><g transform="translate(245.151421, 115.541146)"><g><path d="M 0.71875 0.03125 C 0.65625 0.03125 0.601562 0.00390625 0.5625 -0.046875 C 0.53125 -0.0976562 0.515625 -0.15625 0.515625 -0.21875 C 0.523438 -0.34375 0.546875 -0.414062 0.578125 -0.4375 C 0.617188 -0.46875 0.695312 -0.484375 0.8125 -0.484375 C 1.039062 -0.484375 1.207031 -0.523438 1.3125 -0.609375 C 1.425781 -0.691406 1.5 -0.789062 1.53125 -0.90625 C 1.5625 -1.03125 1.578125 -1.191406 1.578125 -1.390625 L 1.578125 -6.125 C 1.578125 -6.320312 1.5625 -6.484375 1.53125 -6.609375 C 1.5 -6.734375 1.425781 -6.835938 1.3125 -6.921875 C 1.207031 -7.003906 1.039062 -7.046875 0.8125 -7.046875 L 0.734375 -7.046875 C 0.660156 -7.046875 0.609375 -7.054688 0.578125 -7.078125 C 0.546875 -7.109375 0.523438 -7.179688 0.515625 -7.296875 C 0.515625 -7.367188 0.53125 -7.429688 0.5625 -7.484375 C 0.601562 -7.535156 0.65625 -7.5625 0.71875 -7.5625 C 1.238281 -7.53125 1.710938 -7.515625 2.140625 -7.515625 L 5.875 -7.515625 C 6.082031 -7.515625 6.1875 -7.421875 6.1875 -7.234375 L 6.21875 -5.5625 C 6.21875 -5.488281 6.179688 -5.429688 6.109375 -5.390625 C 6.046875 -5.347656 5.976562 -5.328125 5.90625 -5.328125 C 5.8125 -5.328125 5.726562 -5.34375 5.65625 -5.375 C 5.582031 -5.414062 5.539062 -5.472656 5.53125 -5.546875 C 5.46875 -5.929688 5.394531 -6.222656 5.3125 -6.421875 C 5.238281 -6.628906 5.128906 -6.78125 4.984375 -6.875 C 4.835938 -6.976562 4.628906 -7.035156 4.359375 -7.046875 L 2.765625 -7.046875 L 2.765625 -4.015625 L 4.921875 -4.015625 C 4.972656 -4.003906 5.015625 -3.972656 5.046875 -3.921875 C 5.085938 -3.867188 5.109375 -3.8125 5.109375 -3.75 C 5.109375 -3.675781 5.085938 -3.613281 5.046875 -3.5625 C 5.015625 -3.519531 4.972656 -3.5 4.921875 -3.5 L 2.765625 -3.5 L 2.765625 -1.25 C 2.785156 -1.082031 2.804688 -0.945312 2.828125 -0.84375 C 2.847656 -0.75 2.914062 -0.660156 3.03125 -0.578125 C 3.15625 -0.503906 3.34375 -0.472656 3.59375 -0.484375 L 4.703125 -0.484375 C 4.972656 -0.484375 5.179688 -0.523438 5.328125 -0.609375 C 5.472656 -0.691406 5.585938 -0.820312 5.671875 -1 C 5.753906 -1.175781 5.851562 -1.460938 5.96875 -1.859375 C 6.03125 -2.003906 6.164062 -2.0625 6.375 -2.03125 C 6.457031 -2.007812 6.523438 -1.972656 6.578125 -1.921875 C 6.640625 -1.878906 6.671875 -1.820312 6.671875 -1.75 L 6.421875 -0.25 C 6.398438 -0.144531 6.363281 -0.078125 6.3125 -0.046875 C 6.269531 -0.015625 6.191406 0 6.078125 0 L 2.140625 0 C 1.710938 0 1.238281 0.0078125 0.71875 0.03125 Z M 0.71875 0.03125 "/></g></g></g></svg>